<?xml version="1.0" standalone="no"?>
<!DOCTYPE svg PUBLIC "-//W3C//DTD SVG 20010904//EN"
 "http://www.w3.org/TR/2001/REC-SVG-20010904/DTD/svg10.dtd">
<svg version="1.0" xmlns="http://www.w3.org/2000/svg"
 width="2241.000000pt" height="2241.000000pt" viewBox="0 0 2241.000000 2241.000000"
 preserveAspectRatio="xMidYMid meet">
<metadata>
Created by potrace 1.11, written by Peter Selinger 2001-2013
</metadata>
<g transform="translate(0.000000,2241.000000) scale(0.100000,-0.100000)"
fill="#000000" stroke="none">
<path d="M11200 21881 c-58 -32 -132 -73 -165 -91 -33 -18 -89 -50 -125 -70
-36 -21 -92 -52 -125 -70 -33 -18 -80 -44 -105 -58 -25 -14 -101 -56 -170 -95
-119 -66 -142 -79 -251 -140 -25 -14 -66 -37 -90 -50 -111 -60 -256 -141 -279
-155 -14 -9 -27 -17 -30 -17 -3 0 -25 -12 -50 -27 -40 -23 -272 -152 -445
-248 -33 -18 -170 -95 -305 -170 -135 -75 -270 -150 -300 -167 -30 -16 -248
-138 -485 -270 -420 -234 -503 -280 -595 -331 -36 -20 -321 -179 -505 -282
-16 -9 -266 -148 -555 -309 -289 -161 -532 -296 -540 -301 -8 -5 -96 -54 -195
-108 -218 -120 -271 -150 -425 -237 -41 -23 -104 -58 -140 -77 -36 -20 -119
-66 -185 -103 -66 -37 -218 -122 -338 -189 -120 -66 -235 -130 -255 -142 -20
-11 -64 -35 -97 -53 -33 -19 -157 -88 -275 -154 -118 -66 -233 -130 -255 -142
-22 -12 -242 -135 -490 -272 -247 -138 -468 -261 -490 -272 -22 -12 -47 -26
-55 -32 -8 -5 -103 -58 -210 -117 -107 -60 -211 -118 -230 -129 -19 -11 -71
-39 -115 -63 -44 -23 -84 -46 -90 -50 -5 -4 -46 -27 -90 -51 -106 -57 -133
-72 -153 -84 -9 -6 -57 -33 -107 -60 -49 -28 -99 -55 -110 -62 -11 -7 -29 -16
-40 -21 -11 -5 -43 -23 -70 -39 -28 -16 -79 -45 -115 -65 -172 -94 -304 -168
-425 -236 -44 -25 -97 -55 -119 -66 -21 -12 -50 -28 -65 -36 -47 -27 -401
-224 -449 -251 -26 -14 -78 -43 -117 -64 -38 -21 -86 -48 -105 -60 -19 -11
-46 -26 -60 -33 -14 -7 -39 -21 -55 -30 -17 -9 -59 -32 -93 -51 l-62 -34 1
-6576 c1 -5697 3 -6568 15 -6516 8 33 30 130 50 215 74 316 168 677 252 970
87 300 108 369 159 530 26 80 47 147 48 150 16 73 309 895 378 1060 6 14 11
27 12 30 3 9 25 65 34 85 5 11 32 79 61 150 28 72 58 144 65 160 54 129 142
331 166 383 16 35 29 65 29 67 0 3 65 143 163 350 95 200 336 673 408 802 10
18 35 63 55 100 96 176 345 602 429 733 12 19 53 85 92 145 39 61 101 157 139
213 38 57 74 111 79 120 26 43 219 321 319 460 l38 52 -84 113 c-209 277 -386
588 -532 930 -25 59 -46 114 -46 122 0 8 -4 16 -9 19 -4 3 -14 27 -21 53 -7
27 -16 53 -20 58 -7 9 -87 275 -95 312 -2 10 -13 61 -25 113 -39 175 -56 292
-75 515 -13 148 -6 377 16 540 21 155 41 242 90 389 119 360 341 639 632 796
65 35 190 87 227 95 8 2 42 10 75 18 106 28 196 36 350 32 83 -2 159 -5 170
-8 11 -2 43 -8 70 -11 128 -18 328 -81 499 -157 94 -41 310 -156 341 -180 5
-5 42 -30 80 -55 320 -212 660 -544 925 -904 34 -47 64 -87 66 -89 2 -2 23 12
46 30 24 19 61 47 83 62 22 16 72 50 110 78 97 69 291 202 312 214 10 6 43 26
73 46 129 83 366 229 373 229 3 0 34 17 68 38 118 72 363 203 544 291 189 93
297 144 305 146 3 1 21 8 40 17 19 9 69 30 110 48 41 18 89 38 105 45 203 89
628 238 950 334 148 44 497 131 630 157 11 2 54 10 95 19 41 8 89 17 105 20
17 2 39 7 50 9 43 9 343 55 390 60 28 4 66 8 85 11 19 2 62 7 95 10 33 3 71 8
85 10 14 2 68 7 120 10 52 4 120 8 150 10 191 14 286 17 550 17 271 0 381 -3
575 -17 217 -16 322 -26 480 -46 44 -6 98 -13 120 -15 40 -6 52 -7 115 -18 19
-3 52 -8 72 -11 199 -27 584 -111 898 -196 686 -186 1460 -508 2100 -874 74
-42 153 -88 175 -100 22 -13 79 -47 125 -75 47 -29 101 -62 120 -74 19 -11 36
-24 38 -28 2 -4 8 -8 13 -8 10 0 342 -222 454 -304 38 -28 82 -59 96 -68 14
-9 33 -24 42 -32 14 -14 20 -9 68 57 29 39 55 74 59 77 3 3 19 23 36 45 73 99
212 252 359 395 97 94 134 126 250 219 114 91 97 78 190 142 245 169 470 276
770 368 28 9 142 32 225 46 113 19 353 14 491 -10 122 -22 401 -137 449 -185
3 -3 30 -24 60 -46 109 -83 207 -188 293 -317 45 -69 145 -264 152 -296 2 -9
12 -41 23 -71 37 -100 72 -247 88 -365 3 -27 8 -58 9 -67 21 -108 21 -512 0
-640 -2 -13 -6 -45 -10 -73 -3 -27 -10 -75 -15 -105 -5 -30 -12 -71 -15 -90
-3 -19 -17 -82 -31 -140 -14 -58 -27 -113 -29 -123 -13 -60 -97 -316 -144
-437 -125 -320 -335 -705 -533 -971 -92 -124 -90 -103 -11 -210 83 -113 123
-169 315 -449 107 -157 312 -479 434 -683 62 -106 118 -197 124 -204 5 -7 10
-15 10 -17 0 -3 35 -68 79 -143 329 -576 693 -1324 936 -1918 18 -44 58 -141
88 -215 137 -337 298 -779 432 -1190 61 -186 125 -388 130 -410 1 -3 6 -21 12
-40 20 -65 112 -385 128 -445 55 -200 66 -242 69 -255 2 -8 9 -35 16 -60 7
-25 13 -52 15 -60 2 -8 8 -35 15 -60 7 -25 14 -52 16 -60 1 -8 15 -62 29 -120
28 -115 94 -400 101 -440 3 -14 9 -41 14 -60 9 -37 49 -228 56 -270 3 -14 7
-32 9 -40 3 -8 7 -31 10 -50 3 -20 9 -49 13 -65 8 -28 9 -28 55 48 l47 78 0
6667 0 6667 -21 34 c-11 19 -28 48 -38 65 -9 17 -34 58 -55 91 -38 60 -38 60
-303 210 -146 83 -291 165 -322 183 -31 18 -69 39 -86 48 -16 8 -39 21 -50 27
-22 14 -248 142 -310 177 -22 12 -105 59 -185 105 -80 45 -165 93 -190 107
-25 14 -61 34 -80 45 -19 11 -120 68 -225 128 -104 59 -206 116 -225 127 -49
29 -75 44 -245 140 -82 46 -339 192 -570 323 -231 131 -438 249 -461 261 -22
12 -59 34 -82 48 -23 14 -43 26 -46 26 -2 0 -78 42 -167 93 -90 51 -274 156
-409 232 -135 76 -282 160 -328 187 -45 26 -85 48 -88 48 -3 0 -30 16 -60 35
-30 19 -56 35 -58 35 -2 0 -59 32 -127 70 -67 39 -124 70 -126 70 -2 0 -20 11
-41 23 -20 13 -59 36 -87 52 -27 15 -99 55 -160 90 -60 34 -130 73 -155 87
-25 14 -94 54 -155 88 -122 70 -143 82 -229 129 -82 46 -158 90 -176 101 -8 5
-32 19 -53 30 -21 12 -186 105 -365 207 -712 404 -790 448 -862 488 -41 23
-91 51 -110 62 -52 30 -440 250 -820 466 -184 104 -348 197 -365 207 -44 25
-387 219 -460 260 -16 9 -131 75 -255 145 -291 166 -282 161 -370 210 -41 23
-93 52 -115 65 -22 12 -80 45 -129 72 -49 27 -106 61 -127 74 -21 13 -41 24
-43 24 -2 0 -44 23 -93 51 -48 29 -106 61 -128 73 -22 13 -125 71 -230 131
-104 60 -208 118 -230 130 -22 13 -140 79 -263 149 -122 69 -223 126 -225 126
-1 0 -49 -27 -107 -59z"/>
<path d="M6758 8814 c-2 -1 -26 -6 -53 -9 -28 -4 -58 -11 -67 -16 -10 -6 -18
-8 -18 -5 0 3 -30 -6 -67 -18 -322 -111 -571 -383 -659 -721 -41 -154 -40
-365 2 -530 18 -68 80 -222 100 -246 8 -8 14 -19 14 -24 0 -12 104 -148 147
-192 21 -21 60 -56 88 -78 27 -22 56 -46 64 -53 30 -28 241 -122 321 -143 162
-42 426 -31 565 22 264 102 451 268 578 514 33 64 73 170 83 220 2 11 6 31 9
45 10 45 19 144 18 205 0 213 -53 389 -170 573 -50 77 -189 229 -242 262 -13
8 -33 22 -45 31 -79 59 -236 124 -363 150 -52 10 -297 21 -305 13z"/>
<path d="M15449 8816 c-2 -2 -26 -6 -54 -9 -27 -3 -84 -15 -125 -27 -454 -129
-762 -565 -737 -1044 6 -117 13 -169 32 -226 1 -3 5 -18 10 -35 4 -16 17 -50
27 -75 11 -25 26 -61 35 -80 45 -105 187 -280 289 -355 21 -17 41 -33 44 -36
3 -3 34 -23 70 -43 294 -172 660 -181 960 -23 243 127 433 359 508 622 35 121
43 178 43 290 0 206 -48 383 -149 551 -148 246 -373 406 -667 475 -47 11 -277
23 -286 15z"/>
<path d="M11038 5695 c-1 -2 -62 -6 -135 -9 -72 -4 -146 -9 -165 -11 -18 -2
-62 -7 -98 -10 -36 -3 -90 -10 -120 -15 -30 -5 -76 -11 -102 -15 -26 -3 -53
-8 -60 -10 -7 -2 -24 -6 -38 -9 -145 -26 -364 -85 -510 -138 -429 -155 -739
-355 -966 -623 -49 -58 -114 -150 -114 -161 0 -3 -8 -18 -19 -32 -21 -31 -88
-194 -95 -234 -2 -15 -7 -31 -10 -36 -5 -8 -18 -132 -20 -192 -2 -36 9 -143
19 -195 21 -106 99 -279 170 -375 22 -30 45 -62 50 -72 18 -30 166 -177 240
-238 138 -112 339 -236 505 -308 41 -18 89 -39 105 -47 230 -104 683 -214 995
-241 36 -3 76 -8 90 -9 14 -2 40 -4 58 -4 l32 -1 0 -761 0 -761 -112 7 c-62 4
-120 8 -128 10 -8 2 -44 6 -80 10 -66 6 -80 8 -160 20 -67 10 -94 14 -215 36
-142 25 -144 25 -250 49 -120 27 -116 27 -188 45 -34 9 -69 18 -77 20 -118 27
-549 170 -695 230 -11 5 -22 9 -25 10 -11 4 -230 96 -290 122 -19 8 -176 85
-348 171 l-314 156 -83 -1 c-71 0 -93 -5 -147 -30 -227 -107 -281 -398 -105
-575 67 -68 431 -256 822 -426 351 -152 829 -315 1135 -387 8 -2 56 -13 105
-25 50 -12 101 -24 115 -26 14 -2 36 -7 50 -10 14 -3 36 -8 50 -10 14 -2 36
-7 50 -10 44 -10 64 -14 95 -18 17 -3 42 -7 55 -10 14 -3 41 -8 60 -11 19 -2
64 -9 100 -14 36 -6 92 -13 125 -16 33 -4 65 -8 72 -10 43 -14 267 -20 728
-20 527 0 594 3 795 30 58 8 121 17 140 19 79 11 337 56 400 71 14 4 39 9 55
11 25 5 100 22 165 39 8 2 35 8 60 14 313 72 877 266 1235 426 335 148 666
319 726 373 100 89 139 236 99 364 -48 150 -173 247 -329 253 -84 3 -126 -13
-361 -132 -118 -60 -296 -145 -395 -188 -99 -43 -198 -86 -220 -95 -92 -40
-422 -157 -583 -207 -221 -68 -545 -147 -725 -177 -15 -3 -35 -7 -45 -10 -9
-3 -35 -8 -57 -10 -22 -3 -55 -8 -73 -10 -18 -3 -52 -8 -75 -11 -23 -3 -53 -8
-67 -10 -14 -2 -54 -7 -89 -10 -152 -16 -218 -21 -251 -21 l-35 1 0 763 c0
420 2 765 5 767 3 1 36 6 73 10 37 3 78 8 90 11 12 2 38 7 57 10 323 50 691
169 970 312 112 57 325 196 400 259 295 250 453 534 465 833 11 292 -106 554
-358 804 -226 222 -518 394 -898 527 -80 28 -256 79 -321 93 -77 17 -227 48
-248 51 -82 11 -117 16 -130 20 -8 2 -49 7 -90 10 -41 4 -88 9 -105 11 -16 2
-115 7 -220 10 -104 3 -195 7 -202 9 -6 2 -13 2 -15 0z"/>
</g>
</svg>
