<?xml version="1.0" encoding="UTF-8" standalone="no"?><!DOCTYPE svg PUBLIC "-//W3C//DTD SVG 1.1//EN" "http://www.w3.org/Graphics/SVG/1.1/DTD/svg11.dtd"><svg width="100%" height="100%" viewBox="0 0 309 43" version="1.1" xmlns="http://www.w3.org/2000/svg" xmlns:xlink="http://www.w3.org/1999/xlink" xml:space="preserve" xmlns:serif="http://www.serif.com/" style="fill-rule:evenodd;clip-rule:evenodd;stroke-linejoin:round;stroke-miterlimit:2;"><g><text x="52.16px" y="31.412px" style="font-family:'CooperBlack', 'Cooper Black', serif;font-size:29.597px;">BearHouse Bak<tspan x="279.704px 295.398px " y="31.412px 31.412px ">es</tspan></text><g><path d="M21.791,37.981l0,3.636c0,0.381 0.31,0.691 0.691,0.691c0.381,0 0.691,-0.31 0.691,-0.691l0,-3.636c0,-0.381 -0.31,-0.69 -0.691,-0.69c-0.381,0 -0.691,0.309 -0.691,0.69Z" style="fill:#0c0000;"/><ellipse cx="22.289" cy="35.095" rx="4.866" ry="2.886"/><ellipse cx="14.119" cy="28.172" rx="1.952" ry="1.998"/><ellipse cx="30.845" cy="28.172" rx="1.952" ry="1.998"/><path d="M15.739,40.479c4.493,2.472 8.987,2.419 13.481,0.003c0.336,-0.18 0.462,-0.599 0.281,-0.935c-0.18,-0.336 -0.6,-0.462 -0.935,-0.282c-4.054,2.18 -8.108,2.233 -12.161,0.003c-0.335,-0.183 -0.755,-0.061 -0.939,0.273c-0.184,0.334 -0.061,0.755 0.273,0.938Z" style="fill:#0c0000;"/><path d="M43.805,38.801l0.21,0.377c-0.033,0.056 -0.067,0.111 -0.101,0.167c-0.035,-0.182 -0.071,-0.364 -0.109,-0.544Zm-10.736,-19.281l-10.392,-18.665l0.003,0l21.131,11.979c0.1,0.163 0.2,0.326 0.297,0.491l0,25.698c-0.031,0.052 -0.062,0.104 -0.093,0.155l-0.21,-0.377c-1.099,-5.277 -3.171,-9.98 -5.927,-13.704l0.021,-0.027c0.007,-0.01 0.014,-0.019 0.022,-0.028c0.163,-0.215 0.318,-0.441 0.465,-0.678c0.043,-0.071 0.086,-0.142 0.128,-0.215l0.018,-0.031l0.012,-0.022c0.044,-0.076 0.086,-0.153 0.126,-0.23c0.028,-0.053 0.055,-0.105 0.081,-0.157c0.052,-0.103 0.101,-0.206 0.148,-0.31c0.021,-0.047 0.042,-0.093 0.062,-0.14c0.018,-0.041 0.035,-0.082 0.052,-0.123c0.017,-0.042 0.034,-0.084 0.051,-0.126c0.023,-0.061 0.046,-0.121 0.068,-0.181c0.034,-0.091 0.065,-0.182 0.094,-0.273c0.014,-0.043 0.028,-0.087 0.041,-0.13l0.01,-0.031c0.028,-0.095 0.055,-0.189 0.079,-0.284l0.007,-0.027l0.008,-0.031l0.006,-0.026c0.017,-0.07 0.033,-0.14 0.048,-0.21c0.005,-0.02 0.009,-0.04 0.013,-0.06c0.004,-0.021 0.008,-0.042 0.013,-0.063c0.007,-0.039 0.014,-0.079 0.021,-0.118c0.03,-0.168 0.053,-0.334 0.069,-0.498l0.003,-0.029c0.002,-0.022 0.004,-0.043 0.006,-0.065c0.002,-0.021 0.003,-0.042 0.005,-0.063c0.003,-0.047 0.006,-0.094 0.009,-0.141c0.003,-0.075 0.005,-0.15 0.006,-0.224c0.001,-0.079 0,-0.158 -0.002,-0.235c-0.002,-0.048 -0.004,-0.095 -0.007,-0.142c-0.002,-0.023 -0.003,-0.045 -0.005,-0.067c-0.001,-0.024 -0.003,-0.047 -0.005,-0.07c-0.009,-0.094 -0.02,-0.186 -0.033,-0.277c-0.009,-0.059 -0.019,-0.118 -0.03,-0.176c-0.014,-0.072 -0.03,-0.144 -0.047,-0.214c-0.007,-0.026 -0.013,-0.053 -0.02,-0.079c-0.009,-0.03 -0.017,-0.06 -0.026,-0.09c-0.005,-0.018 -0.011,-0.036 -0.016,-0.053c-0.004,-0.013 -0.008,-0.025 -0.012,-0.038c-0.024,-0.072 -0.049,-0.143 -0.077,-0.212c-0.006,-0.015 -0.012,-0.03 -0.018,-0.045c-0.03,-0.072 -0.062,-0.142 -0.096,-0.211l-0.011,-0.02l-0.01,-0.02c-0.027,-0.052 -0.056,-0.103 -0.086,-0.153c-0.008,-0.014 -0.017,-0.028 -0.026,-0.043c-0.026,-0.042 -0.054,-0.084 -0.083,-0.124c-0.014,-0.021 -0.03,-0.042 -0.045,-0.063c-0.02,-0.027 -0.041,-0.054 -0.063,-0.08c-0.009,-0.012 -0.019,-0.024 -0.028,-0.035c-0.013,-0.015 -0.026,-0.03 -0.039,-0.044c-0.009,-0.011 -0.018,-0.021 -0.028,-0.032c-0.01,-0.011 -0.02,-0.022 -0.03,-0.032c-0.025,-0.027 -0.05,-0.052 -0.076,-0.077c-0.034,-0.033 -0.069,-0.065 -0.105,-0.096l-0.017,-0.014l-0.012,-0.01c-0.016,-0.013 -0.033,-0.027 -0.049,-0.04l-0.01,-0.007l-0.008,-0.006c-0.081,-0.063 -0.167,-0.121 -0.257,-0.173c-0.034,-0.02 -0.068,-0.038 -0.103,-0.056c-0.215,-0.11 -0.444,-0.185 -0.682,-0.226c-0.017,-0.003 -0.035,-0.006 -0.052,-0.009l-0.003,0l-0.005,-0.001c-0.06,-0.009 -0.121,-0.016 -0.183,-0.021l-0.001,0c-0.049,-0.004 -0.098,-0.006 -0.147,-0.008l-0.022,0c-0.007,0 -0.014,0 -0.021,0l-0.022,-0.001c-0.056,0 -0.113,0.002 -0.17,0.005c-0.014,0.001 -0.028,0.002 -0.042,0.003c-0.031,0.002 -0.061,0.004 -0.092,0.007c-0.179,0.018 -0.362,0.051 -0.546,0.1l-0.009,0.002l-0.005,0.002c-0.021,0.005 -0.042,0.011 -0.063,0.017l-0.009,0.003c-0.028,0.008 -0.056,0.016 -0.085,0.025l-0.018,0.006l-0.002,0c-0.127,0.041 -0.254,0.088 -0.381,0.142l-0.002,0c-0.061,0.026 -0.122,0.054 -0.183,0.083c-0.074,0.035 -0.148,0.072 -0.222,0.112c-0.152,0.081 -0.302,0.171 -0.452,0.27c-0.112,0.074 -0.222,0.153 -0.332,0.237c-0.043,0.032 -0.085,0.065 -0.127,0.099c-0.017,0.014 -0.035,0.028 -0.052,0.042c-0.146,0.12 -0.289,0.247 -0.43,0.383c-0.014,0.014 -0.028,0.027 -0.042,0.041c-0.016,0.015 -0.031,0.031 -0.047,0.047c-0.055,0.054 -0.109,0.11 -0.162,0.167c-0.029,0.03 -0.058,0.061 -0.086,0.092c-0.038,0.042 -0.076,0.085 -0.113,0.128c-0.071,0.081 -0.142,0.165 -0.211,0.251Zm-10.397,-18.665l0.005,0l10.392,18.665c-0.075,0.094 -0.148,0.19 -0.22,0.288c-0.02,0.027 -0.039,0.054 -0.059,0.081l-0.018,0.025c-3.127,-2.318 -6.696,-3.63 -10.483,-3.63c-3.825,0 -7.426,1.339 -10.577,3.699c-0.029,-0.042 -0.058,-0.083 -0.088,-0.124c-0.049,-0.068 -0.099,-0.135 -0.149,-0.201c-0.024,-0.031 -0.048,-0.061 -0.072,-0.092c-0.01,-0.013 -0.02,-0.025 -0.03,-0.038l-0.007,-0.009c-0.011,-0.013 -0.021,-0.026 -0.031,-0.039l-0.02,-0.024l-0.01,-0.012c-0.02,-0.024 -0.04,-0.048 -0.06,-0.072c-0.504,-0.599 -1.066,-1.088 -1.643,-1.443c-0.008,-0.005 -0.016,-0.01 -0.024,-0.015l-0.023,-0.014c-0.055,-0.033 -0.11,-0.065 -0.165,-0.096c-0.088,-0.049 -0.177,-0.095 -0.265,-0.137c-0.056,-0.027 -0.111,-0.053 -0.167,-0.077l-0.02,-0.009l-0.016,-0.007c-0.028,-0.012 -0.055,-0.023 -0.083,-0.034l-0.015,-0.007l-0.016,-0.006c-0.027,-0.01 -0.053,-0.021 -0.08,-0.031l-0.019,-0.007l-0.001,0c-0.032,-0.012 -0.063,-0.023 -0.095,-0.034c-0.017,-0.006 -0.035,-0.012 -0.053,-0.017c-0.046,-0.016 -0.093,-0.03 -0.139,-0.043c-0.043,-0.013 -0.086,-0.024 -0.128,-0.035l-0.016,-0.004l-0.009,-0.002c-0.087,-0.021 -0.175,-0.039 -0.262,-0.054c-0.038,-0.006 -0.075,-0.012 -0.113,-0.017c-0.029,-0.004 -0.058,-0.007 -0.087,-0.01c-0.031,-0.003 -0.061,-0.006 -0.091,-0.008l-0.02,-0.002l-0.022,-0.001l-0.003,0c-0.021,-0.001 -0.042,-0.002 -0.063,-0.003c-0.029,-0.001 -0.058,-0.002 -0.087,-0.002l-0.022,-0.001l-0.022,0c-0.097,0.001 -0.194,0.006 -0.289,0.017l-0.01,0.001l-0.021,0.003l-0.011,0.001c-0.101,0.013 -0.202,0.032 -0.3,0.057l-0.016,0.004c-0.05,0.013 -0.1,0.027 -0.149,0.044c-0.056,0.018 -0.112,0.039 -0.166,0.062c-0.028,0.011 -0.057,0.024 -0.085,0.037c-0.024,0.011 -0.049,0.023 -0.074,0.036l-0.018,0.009l-0.008,0.004c-0.027,0.014 -0.054,0.029 -0.081,0.045l-0.004,0.002c-0.033,0.019 -0.065,0.038 -0.096,0.058c-0.107,0.069 -0.207,0.146 -0.3,0.23c-0.021,0.019 -0.042,0.038 -0.062,0.058c-0.028,0.027 -0.056,0.055 -0.083,0.083c-0.074,0.08 -0.144,0.165 -0.209,0.255l-0.003,0.004l-0.008,0.011c-0.045,0.063 -0.088,0.129 -0.128,0.197l-0.004,0.007l-0.004,0.007c-0.091,0.156 -0.169,0.324 -0.234,0.502c-0.028,0.076 -0.053,0.153 -0.076,0.233c-0.007,0.021 -0.013,0.043 -0.019,0.066c-0.006,0.022 -0.012,0.045 -0.018,0.068l-0.003,0.01l-0.006,0.025l-0.006,0.025c-0.009,0.041 -0.018,0.083 -0.027,0.124c-0.015,0.074 -0.028,0.148 -0.039,0.224c-0.003,0.018 -0.005,0.036 -0.008,0.054c-0.033,0.243 -0.048,0.498 -0.044,0.76c0.005,0.355 0.043,0.725 0.117,1.104l0.006,0.03c0.003,0.019 0.007,0.037 0.011,0.055c0.03,0.146 0.065,0.292 0.105,0.44l0.009,0.031l0.004,0.015c0.013,0.048 0.027,0.096 0.042,0.144c0.008,0.027 0.016,0.053 0.024,0.079c0.009,0.028 0.018,0.056 0.027,0.084c0.009,0.028 0.018,0.055 0.027,0.082c0.012,0.036 0.024,0.071 0.037,0.107l0.007,0.021l0.008,0.021c0.009,0.025 0.018,0.049 0.027,0.073c0.038,0.103 0.078,0.207 0.121,0.31c0.016,0.037 0.032,0.075 0.048,0.112c0.008,0.018 0.016,0.035 0.023,0.052c0.042,0.093 0.085,0.186 0.13,0.278c0.054,0.111 0.111,0.221 0.17,0.331c0.013,0.024 0.027,0.048 0.04,0.073c0.021,0.038 0.043,0.076 0.065,0.115l0.008,0.013c0.056,0.098 0.114,0.195 0.174,0.289c0.04,0.063 0.08,0.125 0.121,0.186l0.022,0.033c0.048,0.071 0.098,0.142 0.148,0.211c0.024,0.033 0.049,0.066 0.073,0.099c0.038,0.051 0.077,0.101 0.116,0.151c0.018,0.023 0.037,0.046 0.056,0.07l-0.033,0.045c-2.638,3.609 -4.639,8.121 -5.744,13.174l0,-25.404l21.816,-12.148Z"/></g></g></svg>