<?xml version="1.0" encoding="UTF-8" standalone="no"?><!DOCTYPE svg PUBLIC "-//W3C//DTD SVG 1.1//EN" "http://www.w3.org/Graphics/SVG/1.1/DTD/svg11.dtd"><svg width="100%" height="100%" viewBox="0 0 1007 1025" version="1.1" xmlns="http://www.w3.org/2000/svg" xmlns:xlink="http://www.w3.org/1999/xlink" xml:space="preserve" xmlns:serif="http://www.serif.com/" style="fill-rule:evenodd;clip-rule:evenodd;stroke-linejoin:round;stroke-miterlimit:2;"><g><g><path d="M160.151,526.932l-0.619,15.448c-0.362,10.839 -0.508,18.763 -0.439,23.771c0.172,4.474 0.213,7.672 0.121,9.592c-0.223,4.686 -1.591,8.356 -4.104,11.008c-2.509,2.576 -5.416,3.785 -8.719,3.628c-2.151,-0.103 -3.818,-0.683 -4.999,-1.74c-1.182,-1.057 -2.987,-3.568 -5.417,-7.534c-1.43,-2.301 -3.758,-3.952 -6.983,-4.952c-3.224,-1 -10.191,-2.256 -20.899,-3.766c-16.678,-2.257 -37.27,-3.968 -61.777,-5.135c-8.989,-0.427 -14.99,-0.116 -18.005,0.934c-3.014,1.05 -5.586,3.719 -7.715,8.006c-2.392,4.968 -5.663,7.354 -9.811,7.156c-3.38,-0.161 -6.074,-1.809 -8.08,-4.946c-2.007,-3.137 -2.897,-7.087 -2.67,-11.85c0.124,-2.612 0.398,-5.949 0.822,-10.009c0.629,-6.746 1.13,-14.037 1.503,-21.873c0.274,-5.762 0.583,-17.105 0.926,-34.028c0.099,-5.308 0.251,-10.113 0.455,-14.416c0.487,-10.217 1.704,-18.417 3.654,-24.6c1.95,-6.182 4.993,-11.485 9.131,-15.908c6.734,-7.226 15.441,-10.584 26.12,-10.076c5.3,0.252 10.414,1.612 15.34,4.079c4.926,2.468 8.797,5.655 11.614,9.562c2.023,2.791 3.918,4.229 5.685,4.313c1.921,0.091 3.611,-1.445 5.071,-4.61c2.835,-6.179 7.371,-11.699 13.608,-16.561c6.475,-5.005 14.399,-7.285 23.771,-6.839c11.063,0.527 20.973,5.041 29.732,13.542c11.553,11.253 16.832,27.327 15.838,48.223c-0.135,2.843 -0.66,9.825 -1.574,20.946c-0.867,10.123 -1.393,16.334 -1.58,18.635Zm-124.653,-13.901l23.739,1.13c3.764,0.179 6.437,-0.175 8.02,-1.062c1.582,-0.887 2.429,-2.522 2.543,-4.903c0.27,-5.685 -1.278,-9.955 -4.646,-12.81c-3.367,-2.856 -8.777,-4.46 -16.229,-4.815c-7.221,-0.344 -12.876,0.773 -16.964,3.351c-4.088,2.577 -6.253,6.401 -6.494,11.471c-0.128,2.689 0.532,4.588 1.981,5.696c1.449,1.109 4.132,1.756 8.05,1.942Zm66.376,3.159l10.948,0.521c10.064,0.479 16.782,0.067 20.155,-1.235c3.373,-1.303 5.165,-4.182 5.377,-8.638c0.556,-11.677 -6.004,-17.841 -19.678,-18.492c-17.055,-0.811 -25.893,5.313 -26.515,18.373c-0.161,3.38 0.458,5.758 1.855,7.134c1.398,1.375 4.017,2.154 7.858,2.337Z" style="fill:#fff9e5;fill-rule:nonzero;"/><path d="M171.948,301.305l-23.735,48.752c-1.044,2.143 -0.632,3.67 1.235,4.579c4.495,2.188 9.917,1.812 16.267,-1.127c6.349,-2.939 10.888,-7.21 13.615,-12.811c1.616,-3.319 2.769,-7.313 3.459,-11.981c0.69,-4.668 0.741,-8.771 0.154,-12.307c-0.515,-3.16 -0.436,-5.431 0.237,-6.814c0.875,-1.798 2.84,-3.022 5.895,-3.674c3.054,-0.651 5.757,-0.405 8.108,0.74c4.979,2.424 8.27,7.876 9.873,16.355c2.877,15.001 0.813,29.694 -6.189,44.077c-7.07,14.522 -17.214,24.639 -30.431,30.351c-6.472,2.752 -13.404,4.252 -20.797,4.502c-9.801,0.276 -19.023,-1.69 -27.667,-5.898c-11.617,-5.656 -20.342,-14.267 -26.174,-25.831c-5.059,-9.991 -7.27,-20.648 -6.633,-31.972c0.46,-8.501 2.694,-16.866 6.7,-25.095c6.397,-13.139 15.568,-22.489 27.514,-28.05c5.99,-2.815 12.233,-4.394 18.731,-4.738c7.391,-0.422 13.852,0.713 19.384,3.406c4.495,2.189 7.723,4.915 9.684,8.179c1.961,3.264 2.217,6.383 0.77,9.357Zm-41.819,36.611l5.1,-10.476c2.155,-4.426 1.192,-7.632 -2.888,-9.618c-3.734,-1.818 -7.298,-2.228 -10.693,-1.229c-3.395,0.999 -5.934,3.228 -7.617,6.685c-1.886,3.873 -1.846,7.656 0.12,11.35c1.825,3.455 4.19,5.89 7.094,7.304c2.075,1.01 3.771,1.215 5.089,0.616c1.318,-0.598 2.583,-2.142 3.795,-4.632Z" style="fill:#fff9e5;fill-rule:nonzero;"/><path d="M195.753,177.884c9.644,-9.278 20.166,-14.704 31.565,-16.278c6.053,-0.808 11.4,-0.215 16.039,1.779c4.639,1.993 9.785,5.928 15.437,11.803l11.751,12.548c8.265,8.591 14.234,13.575 17.906,14.952c1.782,0.632 3.111,0.848 3.985,0.648c0.874,-0.201 2.332,-1.016 4.372,-2.445c2.04,-1.429 4.047,-1.118 6.02,0.933c2.559,2.66 4.158,6.458 4.797,11.393c0.639,4.935 0.201,9.999 -1.314,15.191c-1.811,6.438 -4.989,11.843 -9.534,16.216c-5.82,5.599 -12.34,8.029 -19.56,7.291c-2.55,-0.322 -4.324,-0.002 -5.322,0.957c-1.108,1.067 -1.911,3.173 -2.407,6.318c-1.65,9.378 -5.995,17.453 -13.034,24.225c-7.261,6.985 -14.629,11.086 -22.104,12.301c-4.911,0.775 -9.812,0.34 -14.703,-1.305c-4.89,-1.645 -9.069,-4.269 -12.535,-7.871c-5.545,-5.765 -8.123,-13.103 -7.733,-22.017c0.543,-13.969 8.02,-27.939 22.433,-41.912c3.215,-3.092 4.932,-5.357 5.15,-6.794c0.218,-1.438 -0.793,-3.32 -3.032,-5.648c-5.652,-5.875 -10.354,-9.543 -14.107,-11.003c-3.752,-1.459 -7.013,-0.856 -9.785,1.81c-1.663,1.6 -2.665,3.525 -3.008,5.776c-0.343,2.25 -0.204,5.639 0.415,10.166c1.839,11.785 0.07,20.263 -5.306,25.435c-2.716,2.613 -5.706,3.942 -8.971,3.988c-3.264,0.046 -6.15,-1.234 -8.656,-3.839c-2.559,-2.661 -4.052,-6.348 -4.477,-11.061c-0.426,-4.713 0.231,-9.827 1.969,-15.342c4.914,-14.972 12.83,-27.71 23.749,-38.215Zm40.739,53.497c-2.438,2.346 -3.599,5.384 -3.48,9.112c0.118,3.728 1.51,6.978 4.176,9.749c2.559,2.661 5.263,4.195 8.111,4.604c2.848,0.409 5.325,-0.4 7.431,-2.426c4.434,-4.266 3.052,-10.14 -4.147,-17.623c-2.932,-3.048 -5.224,-4.792 -6.874,-5.232c-1.651,-0.44 -3.39,0.165 -5.217,1.816Z" style="fill:#fff9e5;fill-rule:nonzero;"/><path d="M330.432,88.46c3.737,-1.629 6.241,-2.091 7.513,-1.387c1.272,0.704 3.47,3.773 6.594,9.207c1.705,2.949 3.474,4.023 5.307,3.224c1.41,-0.615 2.304,-2.221 2.682,-4.819c1.798,-11.271 7.244,-18.89 16.339,-22.855c6.416,-2.797 12.575,-3.007 18.478,-0.63c2.865,1.184 5.631,3.103 8.299,5.758c2.668,2.655 4.647,5.463 5.938,8.424c1.444,3.313 2.152,7.053 2.122,11.219c-0.029,4.166 -0.786,7.915 -2.27,11.247c-2.638,6.268 -7.235,10.831 -13.791,13.689c-3.596,1.568 -6.887,2.247 -9.872,2.039c-2.986,-0.209 -7.298,-1.391 -12.937,-3.548c-2.126,-0.835 -3.823,-0.976 -5.092,-0.423c-1.974,0.861 -2.777,2.532 -2.408,5.014c0.369,2.483 2.106,7.284 5.21,14.405c4.641,10.646 8.195,17.738 10.661,21.278c1.415,1.9 2.741,3.063 3.975,3.49c1.235,0.426 3.482,0.432 6.742,0.018c7.175,-0.862 11.792,1.068 13.851,5.792c1.26,2.89 1.337,5.857 0.23,8.898c-1.107,3.042 -3.199,5.653 -6.276,7.833c-6.153,4.361 -15.787,9.4 -28.9,15.117c-12.479,5.44 -22.438,8.481 -29.878,9.123c-6.641,0.547 -11.023,-1.613 -13.143,-6.477c-1.599,-3.666 -0.913,-7.867 2.057,-12.602c1.461,-2.23 2.341,-4.061 2.64,-5.492c0.299,-1.431 0.174,-3.16 -0.373,-5.186c-1.669,-6.908 -6.284,-19.033 -13.846,-36.377c-1.383,-3.173 -2.726,-5.293 -4.031,-6.36c-1.304,-1.068 -3.198,-1.563 -5.682,-1.487c-5.867,0.208 -9.614,-1.556 -11.243,-5.293c-1.476,-3.384 -1.016,-7.045 1.378,-10.984c2.394,-3.938 7.123,-8.873 14.186,-14.805c9.443,-7.976 17.957,-13.66 25.54,-17.05Z" style="fill:#fff9e5;fill-rule:nonzero;"/><path d="M496.711,0.026c23.992,0.457 35.893,5.645 35.704,15.564c-0.051,2.692 -0.708,4.872 -1.97,6.54c-1.263,1.668 -3.644,3.508 -7.144,5.518c-3.034,1.789 -4.983,4.175 -5.848,7.158c-0.864,2.984 -1.384,9.051 -1.558,18.202c-0.102,5.383 0.835,8.708 2.811,9.977c1.138,0.791 2.879,1.285 5.221,1.484c2.343,0.198 7.859,0.38 16.548,0.545c7.921,0.151 12.85,-0.178 14.789,-0.988c1.938,-0.809 2.94,-2.905 3.004,-6.289c0.193,-10.15 -0.134,-17.233 -0.98,-21.25c-0.847,-4.016 -2.602,-6.78 -5.266,-8.292c-3.347,-1.987 -5.546,-3.664 -6.596,-5.03c-1.051,-1.366 -1.556,-3.164 -1.513,-5.394c0.06,-3.153 1.306,-5.995 3.739,-8.525c2.433,-2.531 5.58,-4.221 9.443,-5.071c8.034,-1.77 18.087,-2.54 30.16,-2.311c14.149,0.27 24.563,1.756 31.243,4.46c6.679,2.704 9.967,6.786 9.863,12.246c-0.088,4.614 -2.537,8.029 -7.349,10.245c-3.025,1.327 -5.011,2.616 -5.958,3.868c-0.947,1.251 -1.722,3.601 -2.327,7.052c-0.344,1.916 -0.891,10.444 -1.64,25.584c-0.75,15.14 -1.21,27.17 -1.379,36.091c-0.297,15.61 0.091,25.54 1.164,29.792c0.571,2.318 1.234,3.869 1.988,4.653c0.754,0.784 3.147,2.368 7.179,4.752c2.891,1.671 4.306,4.159 4.243,7.466c-0.112,5.844 -3.672,10.026 -10.682,12.547c-7.009,2.52 -18.319,3.632 -33.929,3.335c-13.688,-0.26 -23.775,-1.799 -30.26,-4.614c-5.874,-2.574 -8.762,-6.436 -8.664,-11.589c0.083,-4.383 2.417,-7.761 7.001,-10.136c2.253,-1.188 3.795,-2.389 4.626,-3.604c0.831,-1.215 1.662,-3.469 2.494,-6.761c1.507,-6.433 2.35,-14.34 2.529,-23.721c0.092,-4.845 -0.562,-7.857 -1.963,-9.038c-1.401,-1.181 -5.1,-1.828 -11.098,-1.942c-13.765,-0.262 -22.546,0.34 -26.343,1.807c-1.549,0.585 -2.545,2.374 -2.987,5.366c-0.531,3.682 -0.848,8.215 -0.951,13.598c-0.166,8.766 0.944,15.095 3.332,18.987c0.822,1.246 2.791,2.86 5.908,4.843c3.194,1.907 4.751,4.975 4.671,9.204c-0.103,5.383 -3.911,9.426 -11.424,12.129c-7.513,2.704 -18.19,3.924 -32.032,3.66c-12.611,-0.24 -22.89,-1.743 -30.838,-4.51c-3.438,-1.219 -6.118,-2.905 -8.038,-5.057c-1.921,-2.152 -2.857,-4.496 -2.809,-7.034c0.048,-2.538 0.701,-4.487 1.957,-5.848c1.257,-1.36 3.982,-3.078 8.176,-5.152c2.173,-1.035 3.718,-2.391 4.635,-4.066c0.916,-1.674 1.643,-4.507 2.181,-8.497c1.324,-8.975 2.125,-20.729 2.402,-35.263c0.051,-2.691 0.073,-5.883 0.066,-9.576c0.044,-18.461 0.091,-28.999 0.14,-31.613c0.203,-6.612 -0.271,-10.986 -1.423,-13.124c-1.152,-2.137 -4.241,-4.523 -9.268,-7.157c-3.353,-1.679 -4.998,-4.134 -4.937,-7.363c0.148,-7.767 7.786,-13.006 22.915,-15.719c8.8,-1.601 17.814,-2.315 27.042,-2.139Z" style="fill:#fff9e5;fill-rule:nonzero;"/><path d="M750.329,100.583c12.526,6.419 21.845,15.301 27.958,26.644c4.391,8.127 6.728,16.973 7.011,26.538c0.245,9.978 -1.808,19.211 -6.157,27.698c-7.612,14.853 -20.895,23.991 -39.847,27.414c-18.091,3.26 -35.521,0.592 -52.291,-8.002c-16.358,-8.383 -27.217,-19.825 -32.577,-34.326c-5.225,-14.086 -4.12,-28.384 3.316,-42.895c8.279,-16.153 21.072,-26.276 38.381,-30.369c18.136,-4.36 36.205,-1.927 54.206,7.298Zm-20.368,19.507c-3.012,-1.543 -5.994,-1.667 -8.948,-0.373c-2.954,1.295 -5.378,3.791 -7.272,7.487c-2.105,4.107 -4.203,10.097 -6.293,17.97c-2.091,7.874 -3.478,15.092 -4.163,21.655c-0.754,6.7 1.264,11.278 6.055,13.733c6.092,3.122 11.12,0.816 15.083,-6.918c2.947,-5.75 5.527,-12.681 7.74,-20.794c2.214,-8.113 3.4,-15.024 3.56,-20.732c0.127,-5.812 -1.794,-9.821 -5.762,-12.028Z" style="fill:#fff9e5;fill-rule:nonzero;"/><path d="M886.642,217.12l-48.401,39.588c-10.359,8.473 -12.738,16.133 -7.138,22.979c1.412,1.727 3.291,3.022 5.636,3.885c2.346,0.864 4.501,1.038 6.466,0.525c3.928,-1.028 10.834,-5.583 20.717,-13.666c9.763,-7.986 16.163,-13.767 19.2,-17.344c1.293,-1.455 2.039,-2.761 2.236,-3.916c0.198,-1.155 0.062,-2.932 -0.409,-5.329c-0.989,-4.854 -0.115,-8.401 2.624,-10.641c3.691,-3.019 8.637,-2.196 14.838,2.47c11.795,8.833 22.1,18.637 30.913,29.413c4.919,6.013 4.193,11.624 -2.178,16.835c-0.654,0.535 -2.018,1.601 -4.091,3.197c-2.955,2.218 -6.511,4.978 -10.667,8.278l-39.382,32.211c-2.024,1.656 -2.457,4.892 -1.3,9.708c0.957,4.086 0.066,7.249 -2.672,9.489c-5.358,4.382 -14.682,1.426 -27.971,-8.869c-7.813,-6.029 -14.568,-12.527 -20.265,-19.492c-2.337,-2.858 -3.605,-5.075 -3.802,-6.653c-0.197,-1.577 0.584,-3.235 2.343,-4.971c3.447,-3.317 4.368,-5.958 2.761,-7.922c-0.585,-0.715 -1.284,-1.236 -2.098,-1.563c-0.815,-0.328 -3.505,-1.157 -8.072,-2.489c-9.026,-2.653 -16.364,-7.433 -22.012,-14.339c-9.349,-11.43 -12.643,-22.199 -9.882,-32.308c2.274,-8.517 9.96,-18.132 23.058,-28.844c4.881,-3.993 9.073,-7.372 12.575,-10.137c2.024,-1.655 3.393,-2.775 4.107,-3.36c5.12,-4.187 8.509,-7.729 10.165,-10.623c1.656,-2.895 2.171,-6.123 1.544,-9.684c-0.709,-3.296 -0.961,-5.548 -0.758,-6.758c0.203,-1.209 0.93,-2.325 2.18,-3.348c4.524,-3.7 10.331,-2.736 17.419,2.893c12.104,9.574 22.928,20.196 32.472,31.865c2.873,3.512 2.821,6.486 -0.156,8.92Z" style="fill:#fff9e5;fill-rule:nonzero;"/><path d="M983.101,373.248c1.188,3.658 2.321,9.881 3.397,18.669c0.255,1.778 0.56,3.215 0.916,4.312c0.405,1.243 1.847,3.443 4.329,6.6c1.205,1.468 1.997,2.788 2.378,3.958c1.093,3.365 0.04,7.467 -3.158,12.307c-2.535,3.897 -5.565,7.389 -9.091,10.475c-3.525,3.087 -6.788,5.117 -9.787,6.092c-2.926,0.951 -5.69,0.717 -8.294,-0.701c-2.604,-1.418 -4.405,-3.664 -5.404,-6.736c-0.832,-2.56 -0.953,-5.048 -0.363,-7.463c0.59,-2.416 2.281,-6.544 5.074,-12.384c3.014,-6.156 4.021,-10.769 3.023,-13.841c-0.665,-2.048 -1.992,-3.578 -3.978,-4.591c-1.987,-1.012 -4.005,-1.185 -6.053,-0.52c-3.584,1.165 -5.831,5.696 -6.742,13.594c-1.542,14.168 -4.535,25.613 -8.979,34.336c-3.753,7.365 -9.652,12.355 -17.698,14.97c-10.168,3.304 -20.103,1.599 -29.805,-5.114c-8.421,-5.755 -14.437,-14.192 -18.05,-25.31c-0.927,-2.852 -2.14,-8.2 -3.637,-16.043c-1.501,-7.357 -2.394,-11.474 -2.679,-12.352c-0.309,-0.951 -0.776,-2.012 -1.399,-3.185c-0.982,-2.026 -1.627,-3.514 -1.936,-4.465c-1.118,-3.438 -1.119,-6.43 -0.005,-8.975c1.731,-3.879 5.089,-8.043 10.072,-12.492c4.983,-4.45 9.56,-7.353 13.729,-8.707c6.729,-2.187 10.95,-0.647 12.661,4.619c0.666,2.048 0.601,4.152 -0.194,6.31c-0.794,2.159 -3.226,6.932 -7.295,14.32c-2.244,4.044 -3.648,7.25 -4.213,9.618c-0.566,2.367 -0.48,4.684 0.257,6.952c0.784,2.413 2.054,4.144 3.81,5.191c1.755,1.047 3.694,1.226 5.815,0.536c3.291,-1.069 5.375,-4.86 6.251,-11.372c1.952,-13.654 5.15,-24.094 9.595,-31.321c4.445,-7.227 10.69,-12.147 18.736,-14.762c8.705,-2.828 17.07,-2.595 25.096,0.701c11.469,4.683 19.342,13.608 23.621,26.774Z" style="fill:#fff9e5;fill-rule:nonzero;"/><path d="M944.366,580.351l0.687,-54.218c0.031,-2.384 -0.993,-3.589 -3.069,-3.616c-4.999,-0.063 -9.744,2.588 -14.234,7.954c-4.491,5.365 -6.776,11.163 -6.855,17.392c-0.047,3.692 0.612,7.796 1.978,12.313c1.366,4.517 3.068,8.25 5.108,11.198c1.812,2.639 2.709,4.727 2.689,6.265c-0.025,1.999 -1.281,3.945 -3.766,5.836c-2.485,1.892 -5.035,2.821 -7.65,2.788c-5.537,-0.071 -10.838,-3.599 -15.903,-10.586c-8.997,-12.344 -13.393,-26.514 -13.191,-42.51c0.205,-16.15 5.068,-29.626 14.589,-40.428c4.682,-5.247 10.313,-9.56 16.894,-12.938c8.748,-4.427 17.928,-6.58 27.541,-6.458c12.92,0.164 24.483,4.233 34.689,12.208c8.835,6.881 15.378,15.579 19.629,26.094c3.207,7.886 4.753,16.405 4.637,25.557c-0.185,14.612 -4.496,26.979 -12.931,37.102c-4.219,5.1 -9.193,9.19 -14.924,12.271c-6.506,3.533 -12.835,5.26 -18.987,5.182c-4.999,-0.063 -9.081,-1.153 -12.247,-3.27c-3.165,-2.117 -4.726,-4.829 -4.684,-8.136Zm22.221,-50.945l-0.148,11.651c-0.062,4.922 2.175,7.412 6.713,7.469c4.153,0.053 7.552,-1.096 10.197,-3.447c2.645,-2.351 3.991,-5.449 4.04,-9.294c0.055,-4.307 -1.594,-7.712 -4.947,-10.216c-3.124,-2.347 -6.3,-3.541 -9.53,-3.582c-2.308,-0.03 -3.93,0.507 -4.867,1.611c-0.937,1.103 -1.423,3.039 -1.458,5.808Z" style="fill:#fff9e5;fill-rule:nonzero;"/></g><g><path d="M191.119,889.399l-11.775,-10.018c-8.307,-6.972 -14.453,-11.976 -18.438,-15.011c-3.627,-2.625 -6.168,-4.566 -7.623,-5.823c-3.551,-3.066 -5.595,-6.407 -6.131,-10.021c-0.479,-3.564 0.362,-6.597 2.524,-9.1c1.408,-1.63 2.892,-2.584 4.453,-2.861c1.561,-0.278 4.652,-0.15 9.271,0.385c2.694,0.294 5.429,-0.519 8.206,-2.44c2.777,-1.921 8.063,-6.629 15.858,-14.124c12.065,-11.733 26.117,-26.884 42.154,-45.451c5.882,-6.81 9.34,-11.725 10.374,-14.746c1.033,-3.02 0.519,-6.69 -1.542,-11.011c-2.433,-4.948 -2.293,-8.993 0.422,-12.136c2.212,-2.561 5.171,-3.664 8.878,-3.308c3.707,0.356 7.365,2.093 10.973,5.21c1.979,1.709 4.436,3.983 7.37,6.823c4.921,4.657 10.35,9.549 16.287,14.677c4.365,3.771 13.101,11.011 26.208,21.722c4.117,3.353 7.805,6.437 11.064,9.252c7.741,6.687 13.444,12.704 17.106,18.053c3.663,5.349 5.959,11.016 6.887,17.001c1.531,9.757 -1.197,18.682 -8.185,26.772c-3.469,4.016 -7.694,7.202 -12.675,9.556c-4.981,2.355 -9.878,3.435 -14.69,3.242c-3.445,-0.13 -5.746,0.474 -6.902,1.813c-1.257,1.455 -1.09,3.733 0.5,6.834c3.113,6.043 4.66,13.019 4.638,20.928c-0.056,8.183 -3.151,15.825 -9.284,22.926c-7.24,8.382 -16.907,13.397 -29.001,15.044c-15.983,2.15 -31.891,-3.612 -47.723,-17.286c-2.153,-1.861 -7.324,-6.581 -15.513,-14.162c-7.432,-6.927 -11.995,-11.174 -13.691,-12.74Zm87.845,-89.526l-15.535,17.986c-2.463,2.852 -3.834,5.174 -4.112,6.966c-0.277,1.793 0.486,3.468 2.29,5.027c4.307,3.72 8.623,5.136 12.948,4.247c4.325,-0.888 8.925,-4.156 13.802,-9.802c4.726,-5.471 7.335,-10.61 7.829,-15.418c0.494,-4.807 -1.18,-8.87 -5.022,-12.188c-2.037,-1.76 -3.939,-2.411 -5.705,-1.955c-1.766,0.456 -3.931,2.169 -6.495,5.137Zm-43.437,50.289l-7.164,8.295c-6.586,7.625 -10.407,13.166 -11.462,16.624c-1.056,3.458 0.104,6.645 3.48,9.561c8.847,7.642 17.745,6.282 26.694,-4.078c11.16,-12.922 11.793,-23.656 1.899,-32.203c-2.561,-2.212 -4.814,-3.192 -6.759,-2.941c-1.945,0.251 -4.174,1.832 -6.688,4.742Z" style="fill:#fff9e5;fill-rule:nonzero;"/><path d="M406.175,886.34c12.645,4.381 22.257,11.293 28.834,20.734c3.468,5.027 5.367,10.06 5.697,15.099c0.33,5.039 -0.84,11.41 -3.509,19.113l-5.845,16.167c-3.903,11.264 -5.634,18.845 -5.193,22.742c0.246,1.876 0.656,3.158 1.232,3.845c0.575,0.688 1.963,1.617 4.163,2.786c2.199,1.169 2.833,3.098 1.902,5.787c-1.209,3.488 -3.867,6.637 -7.974,9.447c-4.107,2.809 -8.818,4.718 -14.132,5.726c-6.558,1.309 -12.817,0.931 -18.776,-1.133c-7.631,-2.644 -12.756,-7.35 -15.377,-14.118c-0.871,-2.419 -1.961,-3.854 -3.269,-4.308c-1.454,-0.503 -3.694,-0.262 -6.722,0.724c-9.105,2.787 -18.272,2.582 -27.502,-0.615c-9.52,-3.299 -16.519,-8.002 -20.995,-14.112c-2.92,-4.023 -4.758,-8.587 -5.512,-13.691c-0.755,-5.105 -0.314,-10.019 1.322,-14.743c2.619,-7.558 7.987,-13.186 16.106,-16.885c12.693,-5.859 28.536,-5.539 47.528,0.96c4.216,1.46 7.013,1.962 8.393,1.504c1.379,-0.459 2.598,-2.214 3.655,-5.266c2.669,-7.703 3.802,-13.558 3.399,-17.564c-0.403,-4.006 -2.421,-6.638 -6.055,-7.897c-2.18,-0.755 -4.35,-0.775 -6.511,-0.058c-2.161,0.716 -5.118,2.378 -8.87,4.985c-9.666,6.989 -18.023,9.262 -25.072,6.819c-3.561,-1.233 -6.103,-3.294 -7.626,-6.182c-1.523,-2.888 -1.692,-6.04 -0.509,-9.456c1.209,-3.488 3.816,-6.492 7.823,-9.011c4.006,-2.519 8.861,-4.255 14.564,-5.21c15.571,-2.419 30.514,-1.149 44.831,3.811Zm-29.171,60.586c-3.197,-1.107 -6.43,-0.762 -9.699,1.036c-3.268,1.798 -5.532,4.513 -6.79,8.147c-1.209,3.488 -1.349,6.594 -0.42,9.317c0.929,2.723 2.774,4.563 5.535,5.52c5.814,2.014 10.421,-1.885 13.82,-11.695c1.384,-3.997 1.898,-6.831 1.541,-8.501c-0.358,-1.671 -1.686,-2.945 -3.987,-3.824Z" style="fill:#fff9e5;fill-rule:nonzero;"/><path d="M528.12,869.595l0.793,36.116c0.107,3.614 0.337,8.916 0.692,15.906c0.394,7.758 0.741,12.323 1.042,13.694c0.697,3.122 2.39,4.614 5.079,4.478c2.304,-0.117 5.763,-1.775 10.375,-4.974c4.612,-3.199 6.881,-5.528 6.807,-6.988c-0.043,-0.845 -0.966,-2.338 -2.769,-4.48c-1.311,-1.55 -2.003,-3.056 -2.077,-4.515c-0.421,-8.296 9.584,-12.962 30.016,-13.999c10.6,-0.538 19.028,0.112 25.282,1.951c2.501,0.72 4.61,2.076 6.328,4.068c1.719,1.992 2.638,4.179 2.759,6.56c0.176,3.457 -1.353,5.96 -4.586,7.51c-0.675,0.343 -2.878,0.955 -6.606,1.837c-3.349,0.786 -7.621,3.102 -12.816,6.946c-5.196,3.845 -7.753,6.574 -7.671,8.187c0.055,1.076 3.556,5.961 10.505,14.657c6.949,8.696 13.397,16.243 19.343,22.641c3.832,4.195 6.811,7.124 8.936,8.788c2.126,1.663 5.044,3.402 8.756,5.216c5.682,2.715 8.621,5.992 8.816,9.833c0.206,4.071 -1.379,7.347 -4.757,9.829c-3.378,2.482 -8.101,3.877 -14.169,4.185l-37.331,1.895c-4.69,0.161 -8.426,-1.382 -11.209,-4.629l-20.372,-23.571c-5.397,-6.195 -8.684,-9.879 -9.86,-11.051c-1.176,-1.173 -2.148,-1.739 -2.916,-1.7c-0.922,0.047 -1.502,0.769 -1.739,2.167c-0.237,1.398 -0.258,4.018 -0.063,7.858c0.176,3.457 0.687,5.953 1.535,7.489c0.848,1.535 2.712,3.347 5.59,5.434c2.079,1.512 3.198,3.842 3.358,6.992c0.273,5.376 -2.372,9.4 -7.935,12.069c-5.563,2.67 -14.874,4.336 -27.932,4.999c-15.363,0.78 -25.381,0.634 -30.056,-0.438c-2.651,-0.635 -4.958,-2.078 -6.92,-4.327c-1.962,-2.249 -3.01,-4.68 -3.142,-7.291c-0.149,-2.919 1.336,-5.536 4.453,-7.85c2.675,-1.907 4.374,-3.341 5.095,-4.302c0.721,-0.961 1.262,-2.451 1.621,-4.472c1.221,-10.843 1.224,-27.478 0.009,-49.903l-1.281,-25.233c-0.437,-8.603 -1.157,-14.072 -2.162,-16.409c-1.004,-2.336 -3.246,-3.647 -6.726,-3.932c-6.341,-0.526 -9.623,-2.977 -9.845,-7.356c-0.149,-2.918 1.1,-5.619 3.747,-8.103c2.646,-2.483 7.06,-5.036 13.242,-7.66c19.746,-8.473 34.459,-12.955 44.137,-13.446c4.378,-0.222 6.586,1.553 6.624,5.324Z" style="fill:#fff9e5;fill-rule:nonzero;"/><path d="M749.673,912.217l-49.571,21.972c-2.18,0.966 -2.849,2.399 -2.007,4.297c2.026,4.571 6.413,7.779 13.162,9.624c6.75,1.846 12.972,1.507 18.667,-1.018c3.375,-1.496 6.831,-3.806 10.368,-6.93c3.537,-3.124 6.22,-6.227 8.051,-9.31c1.642,-2.747 3.167,-4.433 4.573,-5.056c1.828,-0.81 4.12,-0.48 6.875,0.991c2.755,1.471 4.663,3.402 5.722,5.792c2.244,5.063 1.246,11.352 -2.994,18.868c-7.471,13.323 -18.519,23.226 -33.144,29.708c-14.766,6.545 -29.042,7.741 -42.829,3.589c-6.722,-2.068 -12.989,-5.39 -18.802,-9.964c-7.671,-6.106 -13.454,-13.554 -17.35,-22.343c-5.236,-11.813 -6.356,-24.02 -3.36,-36.621c2.572,-10.899 7.751,-20.472 15.537,-28.718c5.832,-6.203 12.932,-11.158 21.299,-14.867c13.359,-5.922 26.398,-7.158 39.116,-3.71c6.394,1.709 12.185,4.526 17.375,8.452c5.922,4.441 10.13,9.474 12.624,15.099c2.025,4.571 2.736,8.736 2.131,12.495c-0.605,3.76 -2.419,6.31 -5.443,7.65Zm-55.571,1.034l10.653,-4.722c4.5,-1.995 5.83,-5.066 3.991,-9.215c-1.683,-3.797 -4.144,-6.407 -7.383,-7.832c-3.24,-1.424 -6.617,-1.357 -10.133,0.201c-3.937,1.745 -6.345,4.664 -7.224,8.755c-0.832,3.818 -0.593,7.203 0.716,10.156c0.935,2.11 2.099,3.36 3.493,3.752c1.393,0.392 3.356,0.027 5.887,-1.095Z" style="fill:#fff9e5;fill-rule:nonzero;"/><path d="M774.818,813.837c2.872,-2.557 8.117,-6.093 15.734,-10.607c1.526,-0.947 2.719,-1.803 3.581,-2.57c0.977,-0.87 2.412,-3.074 4.307,-6.614c0.861,-1.693 1.751,-2.949 2.67,-3.767c2.643,-2.352 6.823,-3.035 12.54,-2.049c4.587,0.757 9.001,2.13 13.243,4.12c4.243,1.99 7.412,4.163 9.509,6.518c2.045,2.298 2.941,4.924 2.688,7.878c-0.254,2.955 -1.587,5.506 -4,7.653c-2.01,1.79 -4.24,2.9 -6.69,3.329c-2.449,0.43 -6.908,0.538 -13.379,0.326c-6.847,-0.29 -11.477,0.64 -13.89,2.787c-1.608,1.432 -2.477,3.261 -2.607,5.487c-0.129,2.226 0.522,4.143 1.954,5.752c2.505,2.815 7.558,3.054 15.157,0.718c13.595,-4.276 25.279,-6.13 35.052,-5.562c8.252,0.48 15.191,3.88 20.816,10.199c7.108,7.986 9.535,17.769 7.282,29.351c-1.89,10.022 -7.201,18.92 -15.934,26.693c-2.24,1.994 -6.652,5.251 -13.234,9.771c-6.135,4.329 -9.547,6.8 -10.236,7.413c-0.747,0.665 -1.532,1.518 -2.356,2.56c-1.461,1.713 -2.565,2.901 -3.312,3.566c-2.7,2.403 -5.439,3.606 -8.218,3.608c-4.247,-0.029 -9.409,-1.432 -15.485,-4.21c-6.076,-2.777 -10.571,-5.803 -13.486,-9.078c-4.705,-5.285 -4.989,-9.769 -0.852,-13.451c1.608,-1.432 3.56,-2.217 5.857,-2.356c2.296,-0.139 7.643,0.172 16.043,0.933c4.605,0.431 8.106,0.431 10.5,-0.002c2.395,-0.433 4.483,-1.442 6.264,-3.027c1.896,-1.688 2.971,-3.545 3.225,-5.574c0.254,-2.028 -0.36,-3.875 -1.843,-5.541c-2.301,-2.585 -6.61,-2.972 -12.925,-1.16c-13.289,3.695 -24.135,4.957 -32.539,3.787c-8.403,-1.169 -15.417,-4.914 -21.042,-11.233c-6.085,-6.837 -9.229,-14.592 -9.433,-23.265c-0.315,-12.385 4.698,-23.179 15.039,-32.383Z" style="fill:#fff9e5;fill-rule:nonzero;"/></g><path d="M521.155,665.829l0,42.734c0,4.482 3.639,8.121 8.122,8.121c4.483,0 8.122,-3.639 8.122,-8.121l0,-42.734c0,-4.483 -3.639,-8.122 -8.122,-8.122c-4.483,0 -8.122,3.639 -8.122,8.122Z" style="fill:#fff9e5;"/><ellipse cx="527.003" cy="631.901" rx="57.192" ry="33.928" style="fill:#fff9e5;"/><ellipse cx="430.972" cy="550.517" rx="22.951" ry="23.485" style="fill:#fff9e5;"/><ellipse cx="627.582" cy="550.517" rx="22.951" ry="23.485" style="fill:#fff9e5;"/><path d="M450.009,695.191c52.823,29.048 105.645,28.436 158.468,0.036c3.948,-2.122 5.43,-7.051 3.307,-10.999c-2.122,-3.948 -7.051,-5.43 -10.999,-3.308c-47.65,25.619 -95.299,26.241 -142.948,0.037c-3.928,-2.16 -8.871,-0.725 -11.031,3.203c-2.16,3.928 -0.724,8.871 3.203,11.031Z" style="fill:#fff9e5;"/><ellipse cx="127.526" cy="708.563" rx="33.157" ry="33.928" style="fill:#fff9e5;"/><ellipse cx="926.48" cy="708.563" rx="33.157" ry="33.928" style="fill:#fff9e5;"/><path d="M779.92,675.458l2.471,4.439c-0.392,0.653 -0.787,1.305 -1.184,1.956c-0.416,-2.139 -0.845,-4.271 -1.287,-6.395Zm-126.193,-226.637l-122.162,-219.397l0.033,0l248.388,140.807c1.186,1.908 2.351,3.83 3.495,5.767l0,302.069c-0.361,0.612 -0.724,1.221 -1.09,1.83l-2.471,-4.439c-12.92,-62.028 -37.274,-117.305 -69.67,-161.079l0.25,-0.325c0.084,-0.108 0.167,-0.217 0.25,-0.326c1.922,-2.522 3.749,-5.182 5.47,-7.974c0.51,-0.828 1.011,-1.667 1.503,-2.518l0.209,-0.365l0.148,-0.259c0.511,-0.901 1.007,-1.805 1.486,-2.71c0.324,-0.614 0.641,-1.229 0.951,-1.845c0.608,-1.21 1.187,-2.423 1.737,-3.638c0.249,-0.549 0.492,-1.098 0.728,-1.648c0.208,-0.482 0.411,-0.964 0.61,-1.447c0.204,-0.495 0.403,-0.989 0.597,-1.484c0.278,-0.709 0.547,-1.417 0.805,-2.125c0.392,-1.072 0.76,-2.142 1.107,-3.211c0.165,-0.507 0.324,-1.015 0.479,-1.521l0.111,-0.368c0.335,-1.115 0.645,-2.227 0.931,-3.336l0.084,-0.325l0.091,-0.365l0.075,-0.302c0.202,-0.823 0.39,-1.643 0.565,-2.461c0.051,-0.237 0.1,-0.473 0.149,-0.709c0.051,-0.248 0.1,-0.496 0.148,-0.743c0.091,-0.462 0.176,-0.923 0.258,-1.382c0.35,-1.975 0.62,-3.929 0.811,-5.854l0.034,-0.35c0.023,-0.252 0.046,-0.503 0.067,-0.754c0.021,-0.25 0.04,-0.499 0.058,-0.747c0.04,-0.554 0.074,-1.105 0.101,-1.653c0.044,-0.887 0.07,-1.766 0.079,-2.638c0.009,-0.931 -0.002,-1.853 -0.032,-2.765c-0.019,-0.56 -0.045,-1.117 -0.079,-1.669c-0.016,-0.263 -0.034,-0.525 -0.054,-0.786c-0.02,-0.276 -0.042,-0.55 -0.067,-0.824c-0.098,-1.101 -0.226,-2.185 -0.386,-3.251c-0.104,-0.697 -0.221,-1.386 -0.351,-2.066c-0.163,-0.853 -0.347,-1.693 -0.551,-2.519c-0.077,-0.311 -0.157,-0.621 -0.24,-0.928c-0.095,-0.354 -0.195,-0.705 -0.298,-1.053c-0.063,-0.213 -0.127,-0.424 -0.193,-0.635c-0.045,-0.145 -0.092,-0.29 -0.139,-0.435c-0.276,-0.852 -0.577,-1.687 -0.901,-2.502c-0.07,-0.175 -0.14,-0.349 -0.212,-0.521c-0.352,-0.849 -0.73,-1.675 -1.134,-2.478l-0.124,-0.245l-0.119,-0.23c-0.32,-0.613 -0.656,-1.213 -1.008,-1.798c-0.101,-0.168 -0.204,-0.335 -0.307,-0.501c-0.313,-0.5 -0.637,-0.989 -0.973,-1.466c-0.175,-0.248 -0.353,-0.493 -0.534,-0.735c-0.241,-0.321 -0.487,-0.637 -0.739,-0.947c-0.111,-0.137 -0.223,-0.273 -0.336,-0.407c-0.148,-0.176 -0.298,-0.35 -0.45,-0.522c-0.109,-0.124 -0.219,-0.246 -0.329,-0.367c-0.118,-0.13 -0.237,-0.258 -0.358,-0.385c-0.291,-0.308 -0.589,-0.609 -0.893,-0.903c-0.4,-0.386 -0.81,-0.76 -1.231,-1.121l-0.203,-0.173l-0.136,-0.113c-0.192,-0.159 -0.387,-0.317 -0.584,-0.472l-0.111,-0.087l-0.093,-0.071c-0.958,-0.738 -1.967,-1.415 -3.027,-2.028c-0.399,-0.23 -0.802,-0.449 -1.209,-0.657c-2.528,-1.295 -5.213,-2.175 -8.012,-2.663c-0.205,-0.036 -0.41,-0.069 -0.616,-0.101l-0.032,-0.005l-0.059,-0.008c-0.71,-0.107 -1.428,-0.188 -2.152,-0.246l-0.008,0c-0.575,-0.045 -1.155,-0.075 -1.738,-0.09l-0.251,-0.005c-0.084,-0.002 -0.168,-0.003 -0.252,-0.004l-0.252,-0.001c-0.662,-0.002 -1.327,0.016 -1.997,0.053c-0.167,0.009 -0.334,0.02 -0.501,0.031c-0.358,0.025 -0.716,0.055 -1.075,0.09c-2.112,0.208 -4.258,0.601 -6.422,1.171l-0.108,0.028l-0.062,0.017c-0.244,0.065 -0.487,0.132 -0.731,0.202l-0.114,0.032c-0.33,0.095 -0.66,0.194 -0.991,0.297l-0.22,0.069l-0.018,0.006c-1.49,0.473 -2.986,1.028 -4.483,1.662l-0.02,0.008c-0.718,0.305 -1.436,0.627 -2.154,0.968c-0.871,0.413 -1.741,0.853 -2.61,1.318c-1.78,0.953 -3.553,2.015 -5.31,3.181c-1.311,0.869 -2.614,1.797 -3.904,2.781c-0.499,0.38 -0.996,0.769 -1.49,1.165c-0.205,0.165 -0.41,0.33 -0.614,0.498c-1.713,1.402 -3.401,2.903 -5.054,4.5c-0.163,0.158 -0.327,0.317 -0.49,0.477c-0.186,0.182 -0.372,0.366 -0.557,0.551c-0.641,0.64 -1.277,1.296 -1.907,1.965c-0.337,0.358 -0.672,0.72 -1.006,1.086c-0.447,0.491 -0.892,0.99 -1.332,1.495c-0.837,0.96 -1.662,1.946 -2.472,2.957Zm-122.222,-219.398l0.06,0.001l122.162,219.397c-0.882,1.098 -1.747,2.227 -2.593,3.384c-0.23,0.314 -0.459,0.63 -0.686,0.949l-0.215,0.301c-36.765,-27.245 -78.715,-42.679 -123.23,-42.679c-44.954,0 -87.292,15.74 -124.324,43.492c-0.342,-0.494 -0.688,-0.983 -1.036,-1.466c-0.576,-0.8 -1.16,-1.585 -1.752,-2.357c-0.279,-0.364 -0.56,-0.725 -0.843,-1.082c-0.119,-0.151 -0.239,-0.302 -0.358,-0.452l-0.084,-0.105c-0.122,-0.151 -0.244,-0.302 -0.366,-0.453l-0.23,-0.282l-0.12,-0.146c-0.233,-0.283 -0.467,-0.565 -0.702,-0.844c-5.929,-7.044 -12.532,-12.784 -19.318,-16.967c-0.095,-0.058 -0.189,-0.116 -0.283,-0.173l-0.267,-0.162c-0.645,-0.39 -1.293,-0.765 -1.942,-1.126c-1.034,-0.576 -2.07,-1.115 -3.108,-1.617c-0.656,-0.317 -1.311,-0.619 -1.967,-0.906l-0.23,-0.1l-0.197,-0.085c-0.322,-0.138 -0.644,-0.272 -0.966,-0.402l-0.183,-0.074l-0.184,-0.073c-0.314,-0.124 -0.628,-0.245 -0.941,-0.363l-0.219,-0.081l-0.017,-0.006c-0.372,-0.137 -0.743,-0.269 -1.114,-0.396c-0.208,-0.071 -0.416,-0.141 -0.623,-0.209c-0.547,-0.179 -1.093,-0.347 -1.639,-0.504c-0.503,-0.145 -1.006,-0.28 -1.508,-0.406l-0.186,-0.047l-0.096,-0.023c-1.033,-0.252 -2.061,-0.464 -3.083,-0.634c-0.446,-0.074 -0.89,-0.14 -1.333,-0.198c-0.343,-0.045 -0.685,-0.086 -1.026,-0.121c-0.355,-0.037 -0.708,-0.069 -1.061,-0.095l-0.238,-0.017l-0.259,-0.017l-0.03,-0.002c-0.249,-0.015 -0.496,-0.027 -0.743,-0.037c-0.344,-0.014 -0.686,-0.022 -1.027,-0.026l-0.255,-0.001l-0.255,0c-1.149,0.006 -2.285,0.07 -3.404,0.195l-0.119,0.013l-0.248,0.03l-0.12,0.015c-1.197,0.152 -2.375,0.373 -3.531,0.665l-0.185,0.048c-0.593,0.154 -1.18,0.327 -1.76,0.519c-0.657,0.217 -1.306,0.459 -1.947,0.726c-0.333,0.139 -0.665,0.284 -0.993,0.436c-0.293,0.136 -0.583,0.277 -0.872,0.423l-0.22,0.113l-0.09,0.047c-0.32,0.167 -0.637,0.341 -0.952,0.522l-0.049,0.028c-0.381,0.22 -0.756,0.449 -1.124,0.686c-1.254,0.807 -2.432,1.708 -3.531,2.698c-0.247,0.223 -0.491,0.45 -0.73,0.681c-0.33,0.319 -0.653,0.647 -0.969,0.983c-0.878,0.935 -1.698,1.932 -2.46,2.988l-0.038,0.052l-0.092,0.129c-0.529,0.744 -1.029,1.517 -1.501,2.316l-0.049,0.084l-0.045,0.078c-1.069,1.834 -1.987,3.806 -2.754,5.899c-0.326,0.891 -0.626,1.804 -0.898,2.737c-0.074,0.257 -0.147,0.515 -0.218,0.775c-0.072,0.267 -0.142,0.535 -0.21,0.804l-0.031,0.124l-0.073,0.293l-0.07,0.295c-0.113,0.48 -0.22,0.965 -0.319,1.454c-0.176,0.863 -0.33,1.741 -0.463,2.632c-0.031,0.211 -0.062,0.423 -0.091,0.635c-0.392,2.858 -0.567,5.847 -0.523,8.933c0.059,4.172 0.517,8.523 1.378,12.971l0.07,0.361c0.043,0.216 0.087,0.432 0.132,0.648c0.353,1.71 0.766,3.434 1.238,5.166l0.1,0.366l0.05,0.179c0.158,0.564 0.321,1.129 0.491,1.694c0.093,0.308 0.187,0.616 0.284,0.924c0.103,0.331 0.208,0.661 0.316,0.992c0.104,0.319 0.21,0.639 0.317,0.959c0.142,0.42 0.287,0.84 0.436,1.26l0.087,0.247l0.09,0.25c0.103,0.286 0.207,0.572 0.313,0.858c0.449,1.211 0.926,2.423 1.433,3.635c0.184,0.441 0.372,0.882 0.564,1.323c0.089,0.204 0.179,0.408 0.269,0.612c0.484,1.092 0.992,2.182 1.523,3.271c0.633,1.299 1.3,2.595 2.001,3.886c0.154,0.284 0.31,0.568 0.468,0.852c0.25,0.451 0.504,0.902 0.763,1.351l0.093,0.162c0.665,1.152 1.348,2.283 2.048,3.393c0.467,0.74 0.942,1.47 1.424,2.19l0.259,0.385c0.568,0.839 1.146,1.665 1.734,2.476c0.286,0.394 0.574,0.785 0.864,1.172c0.447,0.597 0.901,1.186 1.36,1.767c0.217,0.276 0.436,0.549 0.656,0.821l-0.388,0.529c-31.011,42.431 -54.523,95.463 -67.511,154.866l0,-298.623l256.432,-142.789Z" style="fill:#fff9e5;"/></g></svg>